<?xml version="1.0" encoding="utf-8" standalone="yes"?>
<!DOCTYPE svg PUBLIC "-//W3C//DTD SVG 1.1//EN" "http://www.w3.org/Graphics/SVG/1.1/DTD/svg11.dtd">
<svg style="fill:none;stroke:none;fill-rule:evenodd;clip-rule:evenodd;stroke-linecap:round;stroke-linejoin:round;stroke-miterlimit:1.5;" version="1.1" xmlns="http://www.w3.org/2000/svg" xmlns:xlink="http://www.w3.org/1999/xlink" width="804" height="498" viewBox="0 0 804 498"><style class="text-font-style fontImports" data-font-family="Roboto">@import url(https://fonts.googleapis.com/css2?family=Roboto:wght@400;700&amp;amp;display=block);</style><g id="items" style="isolation: isolate"><g id="blend" style="mix-blend-mode: normal"><g id="g-root-cp_start_g-start_93y4zvmnm0-fill" data-item-order="-296989" transform="translate(134, 93)"></g><g id="g-root-cp_start_g-start_93y4zvmnm0-stroke" data-item-order="-296989" transform="translate(134, 93)"><g id="cp_start_g-start_93y4zvmnm0-stroke" fill="none" stroke-linecap="round" stroke-linejoin="round" stroke-miterlimit="4" stroke="#ffffff" stroke-width="1" stroke-opacity="1"><g><path d="M 190 46L 190 34C 190 27.6348 187.4714 21.5303 182.9706 17.0294C 178.4697 12.5286 172.3652 10 166 10L 34 10C 27.6348 10 21.5303 12.5286 17.0294 17.0294C 12.5286 21.5303 10 27.6348 10 34L 10 46M 190 201.999985L 190 45.999996M 10 45.999996L 10 201.999985M 190 202L 190 335.7143C 190 341.6248 187.4714 347.2933 182.9706 351.4727C 178.4697 355.652 172.3652 358 166 358L 34 358C 27.6348 358 21.5303 355.652 17.0294 351.4727C 12.5286 347.2933 10 341.6248 10 335.7143L 10 202"></path></g></g></g><g id="g-root-cp_1_g-1_93y4zvmnm1-fill" data-item-order="-296965" transform="translate(326, 93)"></g><g id="g-root-cp_1_g-1_93y4zvmnm1-stroke" data-item-order="-296965" transform="translate(326, 93)"><g id="cp_1_g-1_93y4zvmnm1-stroke" fill="none" stroke-linecap="round" stroke-linejoin="round" stroke-miterlimit="4" stroke="#ffffff" stroke-width="1" stroke-opacity="1"><g><path d="M 190 201.999985L 190 45.999996M 10 45.999996L 10 201.999985M 190 202L 190 335.7143C 190 341.6248 187.4714 347.2933 182.9706 351.4727C 178.4697 355.652 172.3652 358 166 358L 34 358C 27.6348 358 21.5303 355.652 17.0294 351.4727C 12.5286 347.2933 10 341.6248 10 335.7143L 10 202M 190 46L 190 34C 190 27.6348 187.4714 21.5303 182.9706 17.0294C 178.4697 12.5286 172.3652 10 166 10L 34 10C 27.6348 10 21.5303 12.5286 17.0294 17.0294C 12.5286 21.5303 10 27.6348 10 34L 10 46"></path></g></g></g><g id="g-root-cp_end_g-end_1uljnsszvmo77-fill" data-item-order="-296937" transform="translate(518, 93)"></g><g id="g-root-cp_end_g-end_1uljnsszvmo77-stroke" data-item-order="-296937" transform="translate(518, 93)"><g id="cp_end_g-end_1uljnsszvmo77-stroke" fill="none" stroke-linecap="round" stroke-linejoin="round" stroke-miterlimit="4" stroke="#ffffff" stroke-width="1" stroke-opacity="1"><g><path d="M 190 46L 190 34C 190 27.6348 187.4714 21.5303 182.9706 17.0294C 178.4697 12.5286 172.3652 10 166 10L 34 10C 27.6348 10 21.5303 12.5286 17.0294 17.0294C 12.5286 21.5303 10 27.6348 10 34L 10 46M 190 201.999985L 190 45.999996M 10 45.999996L 10 201.999985M 190 202L 190 335.7143C 190 341.6248 187.4714 347.2933 182.9706 351.4727C 178.4697 355.652 172.3652 358 166 358L 34 358C 27.6348 358 21.5303 355.652 17.0294 351.4727C 12.5286 347.2933 10 341.6248 10 335.7143L 10 202"></path></g></g></g><g id="g-root-cp_0_g-0_1lqj4n0zvmlu4-fill" data-item-order="-296913" transform="translate(98, 249)"></g><g id="g-root-cp_0_g-0_1lqj4n0zvmlu4-stroke" data-item-order="-296913" transform="translate(98, 249)"><g id="cp_0_g-0_1lqj4n0zvmlu4-stroke" fill="none" stroke-linecap="round" stroke-linejoin="round" stroke-miterlimit="4" stroke="#ffffff" stroke-width="1" stroke-opacity="1"><g><path d="M 627 138.999997L 634 146.999997L 641 138.999997M 627 138.999997L 634 146.999997L 641 138.999997M 605 116.999997L 598 108.999997L 591 116.999997M 605 116.999997L 598 108.999997L 591 116.999997M 605 128.999997L 598 120.999997L 591 128.999997M 605 128.999997L 598 120.999997L 591 128.999997M 605 140.999997L 598 132.999997L 591 140.999997M 605 140.999997L 598 132.999997L 591 140.999997M 578 94.230597L 562 81.310597L 546 94.230597M 578 94.230597L 562 81.310597L 546 94.230597M 578 113.619397L 562 100.689497L 546 113.619397M 578 113.619397L 562 100.689497L 546 113.619397M 578 133.000097L 562 120.080097L 546 133.000097M 578 133.000097L 562 120.080097L 546 133.000097M 170 94.230597L 154 81.310597L 138 94.230597M 170 94.230597L 154 81.310597L 138 94.230597M 170 113.619397L 154 100.689497L 138 113.619397M 170 113.619397L 154 100.689497L 138 113.619397M 170 133.000097L 154 120.080097L 138 133.000097M 170 133.000097L 154 120.080097L 138 133.000097M 110 94.230597L 94 81.310597L 78 94.230597M 110 94.230597L 94 81.310597L 78 94.230597M 110 113.619397L 94 100.689497L 78 113.619397M 110 113.619397L 94 100.689497L 78 113.619397M 110 133.000097L 94 120.080097L 78 133.000097M 110 133.000097L 94 120.080097L 78 133.000097M 67 119.850997L 57.86 112.460897L 48.71 119.850997M 67 119.850997L 57.86 112.460897L 48.71 119.850997M 67 130.919097L 57.86 123.539097L 48.71 130.919097M 67 130.919097L 57.86 123.539097L 48.71 130.919097M 67 141.999097L 57.86 134.619097L 48.71 141.999097M 67 141.999097L 57.86 134.619097L 48.71 141.999097M 531 138.999997L 538 146.999997L 545 138.999997M 531 138.999997L 538 146.999997L 545 138.999997M 327 138.999997L 334 146.999997L 341 138.999997M 327 138.999997L 334 146.999997L 341 138.999997M 303 138.999997L 310 146.999997L 317 138.999997M 303 138.999997L 310 146.999997L 317 138.999997M 279 138.999997L 286 146.999997L 293 138.999997M 279 138.999997L 286 146.999997L 293 138.999997M 111 138.999997L 118 146.999997L 125 138.999997M 111 138.999997L 118 146.999997L 125 138.999997M 15 138.999997L 22 146.999997L 29 138.999997M 15 138.999997L 22 146.999997L 29 138.999997M 297.0002 134.999997L 276.7603 123.139997C 270.268 119.338997 264.4411 114.501797 259.5102 108.819997L 238.7602 84.889997C 237.5642 83.507397 235.9142 82.596697 234.1069 82.321697C 232.2995 82.046797 230.4533 82.425597 228.9002 83.389997L 220.4202 88.650097C 218.7571 89.680297 216.8931 90.343497 214.953 90.595297C 213.0128 90.847097 211.0413 90.681597 209.1702 90.109997C 207.1875 89.502797 205.0929 89.352897 203.0439 89.671597C 200.9949 89.990297 199.0449 90.769297 197.3402 91.949997L 186.0902 99.720097C 183.9942 101.168697 181.6232 102.171697 179.1239 102.667097C 176.6247 103.162497 174.0503 103.139697 171.5602 102.600097L 169.4902 102.139997M 231.8198 102.819797L 239.3398 98.439797C 240.2838 97.887997 241.338 97.551697 242.4272 97.454897C 243.5163 97.358097 244.6133 97.503197 245.6398 97.879797C 248.4919 98.880797 251.1859 100.284997 253.6398 102.049797M 244.4199 90.999997L 247.4199 91.469997M 397 90.489997L 400 89.999997M 244 81.999997L 244 90.919997L 244.4199 90.999997M 250.2298 144.240897L 239.2298 128.530997C 238.6986 127.775197 237.9026 127.246897 236.9998 127.050897C 234.5282 126.529797 232.1059 125.797097 229.7598 124.860897C 229.0318 124.555697 228.2247 124.493897 227.4587 124.684997C 226.6928 124.875997 226.0092 125.309497 225.5098 125.920897L 218.8198 134.160997M 223.4101 128.489197L 215.9001 124.369197C 214.9274 123.831297 213.812 123.607897 212.7072 123.729697C 211.6023 123.851397 210.5623 124.312397 209.7301 125.049197L 200.6401 133.049197M 424.94 154.000797L 414.94 135.330897C 413.1119 131.901397 410.2006 129.172997 406.66 127.570797L 399.85 124.480797C 396.45 122.948197 393.592 120.424697 391.65 117.240797L 385.65 107.450897C 385.3858 107.016597 385.0245 106.649497 384.5945 106.378297C 384.1645 106.107097 383.6775 105.939297 383.1718 105.887897C 382.666 105.836597 382.1553 105.903097 381.6796 106.082297C 381.2039 106.261497 380.7761 106.548497 380.43 106.920797L 374.65 113.140897C 371.5021 116.531197 368.5981 120.140197 365.96 123.940797C 363.0301 128.169897 360.4387 132.623797 358.21 137.260897L 356 142.000797M 401.4502 138.210897C 401.4502 138.210897 407.3302 132.450897 411.9502 131.210897M 452.3198 116.630297L 464.5998 106.280297C 466.024 105.077497 467.776 104.328797 469.6296 104.130997C 471.4833 103.933097 473.3538 104.295097 474.9998 105.170297L 482.5698 109.170297C 485.8852 110.940597 489.688 111.579597 493.3998 110.990297L 495.7698 110.620297C 500.9374 109.820897 505.9438 108.200397 510.5998 105.820297L 526.6898 97.560297C 527.409 97.189097 528.2275 97.055897 529.0273 97.179897C 529.8271 97.303897 530.5668 97.678697 531.1398 98.250297L 535.8098 102.920297M 386.48 108.699297L 400 90.219297L 413 72.399297C 414.1307 70.853997 415.6543 69.639297 417.4127 68.881497C 419.1711 68.123597 421.1002 67.850097 423 68.089297L 436 69.719297C 437.7403 69.936797 439.5072 69.770097 441.1761 69.231097C 442.8451 68.691997 444.3756 67.793697 445.66 66.599297L 451.66 61.029297C 455.4723 57.476897 459.7276 54.431697 464.32 51.969297L 464.92 51.649297C 466.5719 50.765997 468.4144 50.298897 470.2876 50.288497C 472.1608 50.277997 474.0083 50.724497 475.67 51.589297L 479.32 53.489297C 481.173 54.450897 483.2524 54.890997 485.3361 54.762397C 487.4197 54.633797 489.4294 53.941397 491.15 52.759297L 503.52 44.259297C 505.6295 42.807997 508.1295 42.030497 510.69 42.029297L 525.9 42.029297C 528.8149 42.032297 531.6398 43.038697 533.9 44.879297L 550 57.999297M 514.8599 67.450897L 517.7099 60.800797C 519.0094 57.752297 521.0515 55.077697 523.6499 53.020897L 533.9099 44.880897M 488.3801 94.310697L 480.0001 87.090697C 478.499 85.800797 476.6903 84.920497 474.7491 84.534997C 472.8079 84.149597 470.8 84.272097 468.92 84.890697L 460.6401 87.600697C 458.4701 88.311197 456.1377 88.359697 453.9401 87.739897C 451.7424 87.120197 449.7791 85.860297 448.3 84.120697L 436.0601 69.720697M 10 153.999997L 646 153.999997M 634 153.999997L 634 135.999997M 598 101.999997L 598 153.999997M 562 69.999997L 562 153.999997M 154 69.999997L 154 153.999997M 94 69.999997L 94 153.999997M 57.8599 105.999997L 57.8599 153.999997M 538 153.999997L 538 135.999997M 334 153.999997L 334 135.999997M 310 153.999997L 310 135.999997M 286 153.999997L 286 135.999997M 118 153.999997L 118 135.999997M 22 153.999997L 22 135.999997M 400 81.999997L 400 90.229997M 484.05 27.97L 466 27.97L 466 16L 484.05 16L 481.05 21.99L 484.05 27.97ZM 466 10L 466 51.15M 294.999987 61C 297.209187 61 298.999987 59.2091 298.999987 57C 298.999987 54.7909 297.209187 53 294.999987 53C 292.790887 53 290.999987 54.7909 290.999987 57C 290.999987 59.2091 292.790887 61 294.999987 61ZM 292.939987 64.3594L 292.939987 71.2394C 292.937987 71.4036 292.983487 71.5649 293.071187 71.7038C 293.158887 71.8427 293.284887 71.9532 293.434087 72.0219C 293.583287 72.0907 293.749087 72.1148 293.911687 72.0912C 294.074187 72.0677 294.226487 71.9976 294.349987 71.8894L 299.259987 67.7094M 289.520087 75.2109L 289.520087 77.8209C 289.517387 78.1643 289.609287 78.5017 289.785687 78.7963C 289.962087 79.0908 290.216187 79.3312 290.520087 79.4909C 293.010087 80.7709 299.310087 85.1209 300.520087 96.7909M 288.909887 63.5593C 286.739587 67.0653 285.487687 71.0617 285.269887 75.1793C 285.259187 75.4653 285.181487 75.7449 285.043187 75.9954C 284.904887 76.246 284.709687 76.4606 284.473387 76.622C 284.237087 76.7834 283.966187 76.8872 283.682487 76.9249C 283.398787 76.9627 283.110187 76.9334 282.839887 76.8394C 281.834387 76.5017 280.898987 75.9831 280.079887 75.3093C 279.394687 74.7146 278.916787 73.9171 278.715387 73.0325C 278.513987 72.1478 278.599587 71.222 278.959887 70.3893C 280.119887 67.6693 282.359887 63.1993 285.469887 60.6193C 285.707887 60.4235 286.006587 60.3164 286.314887 60.3164C 286.623087 60.3164 286.921787 60.4235 287.159887 60.6193L 288.639887 61.8693C 288.880087 62.0718 289.039387 62.3539 289.088987 62.6641C 289.138587 62.9743 289.074987 63.2921 288.909887 63.5593ZM 289.520187 83.9297L 282.240187 94.7097"></path></g></g></g><g id="g-root-cp_0_g-0_1_1lqj4n0zvmlu5-fill" data-item-order="-296905" transform="translate(341, 330)"></g><g id="g-root-cp_0_g-0_1_1lqj4n0zvmlu5-stroke" data-item-order="-296905" transform="translate(341, 330)"><g id="cp_0_g-0_1_1lqj4n0zvmlu5-stroke" fill="none" stroke-linecap="round" stroke-linejoin="round" stroke-miterlimit="4" stroke="#ffffff" stroke-width="1" stroke-dasharray="2.5, 3.5" stroke-opacity="1"><g><path d="M 10 11.4442C 25.7853 17.0252 86.5917 35.1712 151 10"></path></g></g></g><g id="g-root-tx_fromrawt_1lqj4n0zvmlu6-fill" data-item-order="0" transform="translate(190.21484375, 15)"><g id="tx_fromrawt_1lqj4n0zvmlu6-fill-merged" stroke="none" fill="#ffffff" fill-opacity="1"><g><text style="font: bold 25px Roboto, sans-serif; white-space: pre;" transform="translate(235.78515625, 25)" font-weight="bold" font-size="25px" font-family="Roboto, sans-serif"><tspan x="-223.79" y="14.5" dominant-baseline="ideographic">From Raw Thoughts to Distilled Insights</tspan></text></g></g></g><g id="g-root-tx_fromrawt_1lqj4n0zvmlu6-stroke" data-item-order="0" transform="translate(190.21484375, 15)"></g><g id="g-root-tx_unstruct_18f2m9ozvmnf3-fill" data-item-order="0" transform="translate(156.71875, 141)"><g id="tx_unstruct_18f2m9ozvmnf3-fill-merged" stroke="none" fill="#ffffff" fill-opacity="1"><g><text style="font: bold 15px Roboto, sans-serif; white-space: pre;" transform="translate(77.28125, 28)" font-weight="bold" font-size="15px" font-family="Roboto, sans-serif"><tspan x="-65.28" y="-0.5" dominant-baseline="ideographic">Unstructured Diary </tspan><tspan x="-21.84" y="17.5" dominant-baseline="ideographic">Notes</tspan></text></g></g></g><g id="g-root-tx_unstruct_18f2m9ozvmnf3-stroke" data-item-order="0" transform="translate(156.71875, 141)"></g><g id="g-root-tx_reviewan_zk233wzvmltt-fill" data-item-order="0" transform="translate(373.67578125, 141)"><g id="tx_reviewan_zk233wzvmltt-fill-merged" stroke="none" fill="#ffffff" fill-opacity="1"><g><text style="font: bold 15px Roboto, sans-serif; white-space: pre;" transform="translate(52.32421875, 28)" font-weight="bold" font-size="15px" font-family="Roboto, sans-serif"><tspan x="-40.32" y="-0.5" dominant-baseline="ideographic">Review and </tspan><tspan x="-38.9" y="17.5" dominant-baseline="ideographic">Synthesize</tspan></text></g></g></g><g id="g-root-tx_reviewan_zk233wzvmltt-stroke" data-item-order="0" transform="translate(373.67578125, 141)"></g><g id="g-root-tx_distille_dcykhozvmo7h-fill" data-item-order="0" transform="translate(562.1640625, 141)"><g id="tx_distille_dcykhozvmo7h-fill-merged" stroke="none" fill="#ffffff" fill-opacity="1"><g><text style="font: bold 15px Roboto, sans-serif; white-space: pre;" transform="translate(55.8359375, 28)" font-weight="bold" font-size="15px" font-family="Roboto, sans-serif"><tspan x="-29.35" y="-0.5" dominant-baseline="ideographic">Distilled </tspan><tspan x="-43.84" y="17.5" dominant-baseline="ideographic">Blog Content</tspan></text></g></g></g><g id="g-root-tx_distille_dcykhozvmo7h-stroke" data-item-order="0" transform="translate(562.1640625, 141)"></g><g id="g-root-tx_rawunorg_13z9458zvmo7c-fill" data-item-order="0" transform="translate(161.765625, 189)"><g id="tx_rawunorg_13z9458zvmo7c-fill-merged" stroke="none" fill="#ffffff" fill-opacity="1"><g><text style="font: 15px Roboto, sans-serif; white-space: pre;" transform="translate(72.234375, 28)" font-size="15px" font-family="Roboto, sans-serif"><tspan x="-60.23" y="-0.5" dominant-baseline="ideographic">Raw, unorganized </tspan><tspan x="-31.52" y="17.5" dominant-baseline="ideographic">thoughts</tspan></text></g></g></g><g id="g-root-tx_rawunorg_13z9458zvmo7c-stroke" data-item-order="0" transform="translate(161.765625, 189)"></g><g id="g-root-tx_analyzea_qof2v0zvmmmi-fill" data-item-order="0" transform="translate(342.99609375, 189)"><g id="tx_analyzea_qof2v0zvmmmi-fill-merged" stroke="none" fill="#ffffff" fill-opacity="1"><g><text style="font: 15px Roboto, sans-serif; white-space: pre;" transform="translate(83.00390625, 28)" font-size="15px" font-family="Roboto, sans-serif"><tspan x="-71" y="-0.5" dominant-baseline="ideographic">Analyze and connect </tspan><tspan x="-19.85" y="17.5" dominant-baseline="ideographic">ideas</tspan></text></g></g></g><g id="g-root-tx_analyzea_qof2v0zvmmmi-stroke" data-item-order="0" transform="translate(342.99609375, 189)"></g><g id="g-root-tx_structur_8xrjgczvmlty-fill" data-item-order="0" transform="translate(533.52734375, 189)"><g id="tx_structur_8xrjgczvmlty-fill-merged" stroke="none" fill="#ffffff" fill-opacity="1"><g><text style="font: 15px Roboto, sans-serif; white-space: pre;" transform="translate(84.47265625, 28)" font-size="15px" font-family="Roboto, sans-serif"><tspan x="-72.47" y="-0.5" dominant-baseline="ideographic">Structured, insightful, </tspan><tspan x="-60.35" y="17.5" dominant-baseline="ideographic">useful knowledge</tspan></text></g></g></g><g id="g-root-tx_structur_8xrjgczvmlty-stroke" data-item-order="0" transform="translate(533.52734375, 189)"></g></g></g></svg>